<svg xmlns="http://www.w3.org/2000/svg" style="display: none;"><symbol id="mini-van" viewBox="0 0 512 512"><title>mini-van</title><linearGradient id="New_Gradient_Swatch_12" gradientUnits="userSpaceOnUse" x1="4" x2="508" y1="320" y2="320"><stop offset=".011" stop-color="#80d1cb"/><stop offset="1" stop-color="#bfe8e5"/></linearGradient><linearGradient id="New_Gradient_Swatch_3" gradientUnits="userSpaceOnUse" x1="363.248" x2="436.752" y1="452.752" y2="379.248"><stop offset=".011" stop-color="#606082"/><stop offset="1" stop-color="#83839e"/></linearGradient><linearGradient id="New_Gradient_Swatch_3-2" x1="59.248" x2="132.752" xlink:href="#New_Gradient_Swatch_3" y1="452.752" y2="379.248"/><linearGradient id="New_Gradient_Swatch_3-3" x1="72.917" x2="223.083" xlink:href="#New_Gradient_Swatch_3" y1="332.279" y2="182.113"/><linearGradient id="New_Gradient_Swatch_3-4" x1="323.747" x2="390.639" xlink:href="#New_Gradient_Swatch_3" y1="303.109" y2="236.217"/><linearGradient id="New_Gradient_Swatch_4" gradientUnits="userSpaceOnUse" x1="383.029" x2="416.971" y1="432.971" y2="399.029"><stop offset=".011" stop-color="#cacad5"/><stop offset="1" stop-color="#ededf1"/></linearGradient><linearGradient id="New_Gradient_Swatch_4-2" x1="78.676" x2="113.324" xlink:href="#New_Gradient_Swatch_4" y1="433.324" y2="398.676"/><g id="_17-shuttle_van" data-name="17-shuttle van"><g id="gradient"><path d="m480.341 316.813-56.424-22.571-54.807-82.211a35.93 35.93 0 0 0 -29.954-16.031h-299.156a36.04 36.04 0 0 0 -36 36v200a12 12 0 0 0 12 12h480a12 12 0 0 0 12-12v-74.335a43.786 43.786 0 0 0 -27.659-40.852z" fill="url(#New_Gradient_Swatch_12)"/><path d="m4 372h504v24h-504z" fill="#eff9f8"/><circle cx="400" cy="416" fill="url(#New_Gradient_Swatch_3)" r="52"/><circle cx="96" cy="416" fill="url(#New_Gradient_Swatch_3-2)" r="52"/><rect fill="url(#New_Gradient_Swatch_3-3)" height="74.391" rx="12" width="240" x="28" y="220"/><path d="m320 294.391h104.29l-.373-.149-49.495-74.242h-54.422a12 12 0 0 0 -12 12v50.391a12 12 0 0 0 12 12z" fill="url(#New_Gradient_Swatch_3-4)"/><circle cx="400" cy="416" fill="url(#New_Gradient_Swatch_4)" r="24"/><circle cx="96" cy="416" fill="url(#New_Gradient_Swatch_4-2)" r="24.5"/></g></g></symbol><symbol id="vehicle" viewBox="0 0 512 512"><title>vehicle</title><g><path d="m496.484 340.177v-117.351c0-12.445-2.897-24.718-8.463-35.849l-32.987-65.974c-4.074-8.147-12.401-13.294-21.51-13.294h-393.959c-13.282 0-24.048 10.767-24.048 24.048v208.419l112.226 24.048h264.532z" fill="#d6bdef"/><path d="m15.516 219.935h24.048v56.113h-24.048z" fill="#c3aff0"/><path d="m127.742 364.225h264.532l94.823-21.882c-2.531-12.94-8.541-24.932-17.43-34.687-9.019-9.899-21.963-15.576-35.511-15.576h-35.689c-13.388 0-26.177 5.518-35.087 15.139-7.395 7.982-12.745 17.264-15.902 27.587-.967 3.162-4.244 5.371-7.97 5.371h-211.766z" fill="#c3aff0"/><path d="m15.516 251.999v88.178l112.226 24.048h88.179z" fill="#e5646e"/><path d="m15.516 227.951 480.968 42.19v-47.315c0-12.444-2.897-24.718-8.462-35.849l-11.207-22.413-461.298 4.082v59.305z" fill="#a4ccff"/><path d="m39.565 195.887h-24.049v32.064l24.049 2.11z" fill="#8bb3ea"/><path d="m433.524 107.709h-393.959c-13.282 0-24.048 10.767-24.048 24.048v72.145h478.672c-1.418-5.835-3.464-11.519-6.167-16.926l-32.988-65.975c-4.073-8.146-12.401-13.292-21.51-13.292z" fill="#ffe07d"/><path d="m39.565 107.709c-13.282 0-24.048 10.767-24.048 24.048v8.016l24.048 16.032z" fill="#ffd064"/><path d="m464.419 139.774h-104.209c-8.854 0-16.032 7.178-16.032 16.032v48.097h150.011c-1.418-5.835-3.464-11.519-6.167-16.926z" fill="#edf4ff"/><path d="m15.516 332.161c-4.427 0-8.016 3.589-8.016 8.016v16.032c0 4.427 3.589 8.016 8.016 8.016h48.097v-32.065h-48.097z" fill="#dad8db"/><path d="m496.484 364.225c4.427 0 8.016-3.589 8.016-8.016v-16.032c0-4.427-3.589-8.016-8.016-8.016h-48.097v32.065h48.097z" fill="#eceaec"/><path d="m113.511 316.129h-35.689c-6.581 0-12.973 2.604-17.445 7.432-10.129 10.935-15.239 26.58-11.653 43.295 3.869 18.035 18.486 32.571 36.539 36.357 31.111 6.524 58.511-17.04 58.511-47.003 0-12.466-4.747-23.816-12.529-32.356-4.528-4.971-11.01-7.725-17.734-7.725z" fill="#5d5360"/><circle cx="95.677" cy="356.209" fill="#ffe07d" r="16.032"/><path d="m296.081 139.774h-48.097c-8.854 0-16.032 7.178-16.032 16.032v48.097h80.161v-48.097c0-8.855-7.178-16.032-16.032-16.032z" fill="#edf4ff"/><path d="m183.855 139.774h-48.097c-8.854 0-16.032 7.178-16.032 16.032v48.097h80.161v-48.097c0-8.855-7.178-16.032-16.032-16.032z" fill="#edf4ff"/><path d="m87.661 203.903v-48.097c0-8.854-7.178-16.032-16.032-16.032h-56.113v64.129z" fill="#edf4ff"/><path d="m472.435 276.048c0 13.282 10.767 24.048 24.048 24.048v-48.096c-13.281 0-24.048 10.766-24.048 24.048z" fill="#ffe07d"/><path d="m434.156 316.129h-35.689c-6.581 0-12.973 2.604-17.445 7.432-10.129 10.935-15.239 26.58-11.653 43.295 3.869 18.035 18.486 32.571 36.539 36.357 31.111 6.524 58.511-17.04 58.511-47.003 0-12.466-4.747-23.816-12.528-32.356-4.529-4.971-11.011-7.725-17.735-7.725z" fill="#5d5360"/><circle cx="416.323" cy="356.209" fill="#ffe07d" r="16.032"/><g fill="#dbeaff"><path d="m39.565 163.822v-24.048h-24.049v64.129h72.145v-24.048h-32.064c-8.855-.001-16.032-7.179-16.032-16.033z"/><path d="m143.774 163.822v-24.048h-8.016c-8.854 0-16.032 7.178-16.032 16.032v48.097h80.161v-24.048h-40.081c-8.854-.001-16.032-7.179-16.032-16.033z"/><path d="m256 163.822v-24.048h-8.016c-8.854 0-16.032 7.178-16.032 16.032v48.097h80.161v-24.048h-40.081c-8.854-.001-16.032-7.179-16.032-16.033z"/><path d="m484.46 179.854h-100.202c-8.854 0-16.032-7.178-16.032-16.032v-24.048h-8.016c-8.854 0-16.032 7.178-16.032 16.032v48.097h150.011c-1.418-5.835-3.464-11.519-6.167-16.926z"/></g><path d="m102.297 386.178c-18.053-3.786-32.67-18.322-36.539-36.357-2.511-11.706-.687-22.846 4.069-32.252-3.561 1.229-6.848 3.183-9.449 5.992-10.129 10.936-15.24 26.58-11.654 43.295 3.869 18.035 18.486 32.571 36.539 36.357 21.875 4.587 41.869-5.729 51.841-22.657-9.89 5.843-22.016 8.304-34.807 5.622z" fill="#4b3f4e"/><path d="m422.942 386.178c-18.053-3.786-32.67-18.322-36.539-36.357-2.511-11.706-.687-22.846 4.069-32.252-3.561 1.229-6.848 3.183-9.449 5.992-10.129 10.936-15.24 26.58-11.654 43.295 3.869 18.035 18.486 32.571 36.539 36.357 21.875 4.587 41.869-5.729 51.841-22.657-9.89 5.843-22.016 8.304-34.807 5.622z" fill="#4b3f4e"/></g><g><path d="m95.677 332.677c-12.976 0-23.532 10.557-23.532 23.532s10.557 23.532 23.532 23.532 23.532-10.557 23.532-23.532-10.556-23.532-23.532-23.532zm0 32.064c-4.705 0-8.532-3.828-8.532-8.532s3.828-8.532 8.532-8.532 8.532 3.828 8.532 8.532-3.827 8.532-8.532 8.532z"/><path d="m416.323 332.677c-12.976 0-23.532 10.557-23.532 23.532s10.557 23.532 23.532 23.532 23.532-10.557 23.532-23.532-10.557-23.532-23.532-23.532zm0 32.064c-4.705 0-8.532-3.828-8.532-8.532s3.828-8.532 8.532-8.532 8.532 3.828 8.532 8.532-3.828 8.532-8.532 8.532z"/><path d="m503.984 326.603v-103.777c0-13.538-3.2-27.094-9.255-39.203l-32.987-65.974c-5.378-10.757-16.19-17.44-28.218-17.44h-393.96c-17.396 0-31.548 14.153-31.548 31.548v194.846c-4.774 2.649-8.016 7.738-8.016 13.574v16.032c0 8.556 6.96 15.516 15.516 15.516h26.703c5.472 19.294 21.764 34.688 41.505 38.828 3.956.83 7.93 1.238 11.867 1.238 12.763 0 25.122-4.29 35.112-12.403 8.936-7.257 15.263-16.908 18.375-27.662h213.844c3.112 10.754 9.439 20.405 18.375 27.662 9.992 8.114 22.348 12.403 35.112 12.403 3.936 0 7.912-.408 11.867-1.238 19.74-4.14 36.032-19.533 41.504-38.828h26.703c8.556 0 15.516-6.96 15.516-15.516v-16.032c.001-5.836-3.241-10.925-8.015-13.574zm-15-35.823c-5.362-2.741-9.048-8.308-9.048-14.732 0-6.423 3.687-11.991 9.048-14.732zm-4.984-94.377h-92.242v-49.129h68.026l21.529 43.057c.99 1.98 1.884 4.008 2.687 6.072zm-132.323 0v-40.597c0-4.705 3.828-8.532 8.532-8.532h16.549v49.129zm-312.113-81.194h393.96c6.309 0 11.98 3.505 14.801 9.148l3.958 7.917h-92.075c-12.976 0-23.532 10.557-23.532 23.532v40.597h-17.064v-40.597c0-12.976-10.557-23.532-23.532-23.532h-48.097c-12.976 0-23.532 10.556-23.532 23.532v40.597h-17.064v-40.597c0-12.976-10.557-23.532-23.532-23.532h-48.097c-12.976 0-23.533 10.556-23.533 23.532v40.597h-17.064v-40.597c0-12.976-10.557-23.532-23.532-23.532h-48.613v-.516c0-9.125 7.423-16.549 16.548-16.549zm289.097 136.791c0 17.337-6.112 33.268-16.282 45.772l-48.879-48.879v-37.49h52.761c8.118 12.005 12.4 25.96 12.4 40.597zm-118.433 56.378 38.272-38.272v54.168c-14.419-1.485-27.595-7.21-38.272-15.896zm-26.889-56.378c0-14.637 4.282-28.592 12.4-40.597h52.761v37.49l-48.879 48.878c-10.17-12.503-16.282-28.434-16.282-45.771zm9.048-55.597h-65.162v-40.597c0-4.705 3.828-8.532 8.533-8.532h48.097c4.705 0 8.532 3.828 8.532 8.532zm112.226 0h-65.161v-40.597c0-4.705 3.828-8.532 8.532-8.532h48.097c4.705 0 8.532 3.828 8.532 8.532zm-41.113 73.703 38.272 38.272c-10.678 8.686-23.853 14.411-38.272 15.896zm-240.484-73.703v-49.129h48.613c4.705 0 8.532 3.828 8.532 8.532v40.597zm31.859 122.062c-1.821 1.966-3.461 4.043-4.956 6.196h-26.903v-59.866l78.274 43.833h-23.468c-8.793.001-17.157 3.586-22.947 9.837zm-39.875 37.744v-16.032c0-.285.231-.516.516-.516h27.066c-1.702 5.471-2.542 11.21-2.482 17.064h-24.584c-.285 0-.516-.231-.516-.516zm106.248 31.534c-9.549 7.755-22.104 10.718-34.445 8.129-15.146-3.176-27.501-15.469-30.746-30.59-2.88-13.426.7-26.776 9.823-36.625 2.96-3.196 7.313-5.029 11.942-5.029h35.689c4.692 0 9.136 1.923 12.19 5.275 6.818 7.483 10.573 17.181 10.573 27.305 0 12.287-5.477 23.781-15.026 31.535zm25.412-53.707 40.517 22.689h-35.917c.002-.172.014-.343.014-.516 0-7.713-1.595-15.243-4.614-22.173zm71.216 22.689-194.86-109.121v-11.466l120.101 10.535c.223.02.444.029.664.029 3.846 0 7.12-2.941 7.462-6.845.362-4.126-2.689-7.765-6.816-8.127l-121.411-10.65v-9.677h155.257c-6.53 12.444-9.934 26.252-9.934 40.597 0 23.864 9.589 45.526 25.112 61.35.175.219.361.433.564.636s.417.389.636.564c15.823 15.522 37.486 25.112 61.35 25.112s45.527-9.589 61.35-25.112c.219-.175.433-.361.636-.564s.389-.417.564-.636c15.522-15.823 25.112-37.486 25.112-61.35 0-14.345-3.404-28.152-9.934-40.597h154.338c.604 3.778.919 7.601.919 11.423v22.582c-8.419 2.062-15.518 7.509-19.773 14.812l-100.329-8.801c-4.119-.361-7.765 2.689-8.126 6.816-.362 4.126 2.689 7.765 6.816 8.127l97.393 8.543c-.014.38-.029.76-.029 1.143 0 14.812 10.262 27.265 24.048 30.641v17.973h-26.903c-1.495-2.153-3.135-4.23-4.956-6.197-5.79-6.25-14.154-9.835-22.947-9.835h-35.689c-8.903 0-17.388 3.708-23.278 10.173-9.341 10.252-14.485 23.537-14.485 37.407 0 .173.013.344.014.516h-142.866zm238.067 8.557c-3.244 15.121-15.6 27.414-30.746 30.59-12.341 2.587-24.896-.375-34.445-8.129-9.55-7.754-15.027-19.248-15.027-31.534 0-10.125 3.755-19.822 10.573-27.305 3.055-3.353 7.498-5.275 12.19-5.275h35.689c4.629 0 8.982 1.833 11.942 5.028 9.124 9.85 12.704 23.199 9.824 36.625zm41.057-9.073c0 .285-.231.516-.516.516h-24.584c.06-5.854-.78-11.593-2.482-17.064h27.066c.285 0 .516.231.516.516z"/></g></symbol></svg>